<?xml version="1.0" encoding="UTF-8" standalone="no"?>
<!DOCTYPE svg PUBLIC "-//W3C//DTD SVG 1.1//EN" "http://www.w3.org/Graphics/SVG/1.1/DTD/svg11.dtd">
<svg width="100%" height="100%" viewBox="0 0 1103 422" version="1.1" xmlns="http://www.w3.org/2000/svg" xmlns:xlink="http://www.w3.org/1999/xlink" xml:space="preserve" xmlns:serif="http://www.serif.com/" style="fill-rule:evenodd;clip-rule:evenodd;stroke-linejoin:round;stroke-miterlimit:2;">
    <g transform="matrix(1,0,0,1,-1923.75,-853.242)">
        <g transform="matrix(1.05979,0,0,1.05979,-65.9446,214.035)">
            <path d="M1934.97,956.241C1931.27,956.241 1929.69,953.602 1929.69,947.796L1929.69,654.866C1929.69,649.588 1931.27,646.949 1934.97,646.949C1938.66,646.949 1940.24,649.588 1940.24,654.866L1940.24,774.15L1990.38,774.15L1990.38,653.283C1990.38,623.198 1975.61,603.142 1939.72,603.142L1931.27,603.142C1891.68,603.142 1877.43,625.837 1877.43,658.033L1877.43,944.629C1877.43,980.52 1892.74,1001.1 1931.27,1001.1L1939.72,1001.1C1975.61,1001.1 1990.38,977.881 1990.38,948.852L1990.38,815.318L1940.24,815.318L1940.24,947.796C1940.24,953.602 1938.66,956.241 1934.97,956.241Z" style="fill:white;fill-rule:nonzero;"/>
            <path d="M2114.95,662.783C2114.95,626.365 2098.58,603.142 2060.58,603.142L2053.19,603.142C2015.19,603.142 1998.3,625.31 1998.3,662.783L1998.3,942.518C1998.3,979.992 2017.3,1001.1 2053.19,1001.1L2060.58,1001.1C2094.89,1001.1 2114.95,980.52 2114.95,942.518L2114.95,662.783ZM2062.69,946.74C2062.69,952.546 2060.58,955.185 2056.89,955.185C2053.19,955.185 2051.08,952.546 2051.08,946.74L2051.08,657.505C2051.08,651.7 2053.19,648.533 2056.89,648.533C2060.58,648.533 2062.69,651.7 2062.69,657.505L2062.69,946.74Z" style="fill:white;fill-rule:nonzero;"/>
            <path d="M2123.92,998.465L2165.61,998.465L2165.61,769.399L2181.45,998.465L2199.39,998.465L2214.7,769.399L2214.7,998.465L2257.98,998.465L2257.98,605.781L2200.98,605.781L2191.48,805.818L2181.98,605.781L2123.92,605.781L2123.92,998.465Z" style="fill:white;fill-rule:nonzero;"/>
            <path d="M2244.26,998.465L2285.43,998.465L2322.37,769.399L2300.73,998.465L2318.15,998.465L2369.87,769.399L2332.93,998.465L2375.15,998.465L2437.96,605.781L2381.48,605.781L2340.84,805.818L2363.01,605.781L2307.06,605.781L2244.26,998.465Z" style="fill:white;fill-rule:nonzero;"/>
            <path d="M2447.46,1001.1C2483.88,1001.1 2499.18,978.936 2503.93,949.379L2558.83,605.781L2507.63,605.781L2453.79,945.685C2452.21,952.018 2451.15,953.602 2447.46,953.602C2443.76,953.602 2441.65,952.018 2443.24,945.685L2497.07,605.781L2446.4,605.781L2391.51,948.852C2386.76,978.936 2402.07,1001.1 2440.07,1001.1L2447.46,1001.1Z" style="fill:white;fill-rule:nonzero;"/>
            <path d="M2567.27,605.781L2504.46,998.465L2545.63,998.465L2585.74,745.12L2568.33,998.465L2615.3,998.465L2677.58,605.781L2636.94,605.781L2601.58,833.263L2618.47,605.781L2567.27,605.781Z" style="fill:white;fill-rule:nonzero;"/>
            <path d="M2736.17,605.781L2686.55,605.781L2623.74,998.465L2673.36,998.465L2736.17,605.781Z" style="fill:white;fill-rule:nonzero;"/>
            <path d="M2726.14,998.465L2776.81,998.465L2776.81,652.755L2800.03,652.755L2800.03,605.781L2703.44,605.781L2703.44,652.755L2726.14,652.755L2726.14,998.465Z" style="fill:white;fill-rule:nonzero;"/>
            <path d="M2835.92,998.465L2887.12,998.465L2887.12,839.069L2917.73,605.781L2871.81,605.781L2862.84,753.037L2853.87,605.781L2803.2,605.781L2835.92,839.069L2835.92,998.465Z" style="fill:white;fill-rule:nonzero;"/>
        </g>
    </g>
</svg>
